<?xml version="1.0" encoding="UTF-8" standalone="no"?>
<!DOCTYPE svg PUBLIC "-//W3C//DTD SVG 1.1//EN" "http://www.w3.org/Graphics/SVG/1.1/DTD/svg11.dtd">
<svg xmlns="http://www.w3.org/2000/svg" version="1.1" viewBox="0 0 200 200">
<path fill="#222a2c" d="M 200.00,124.06 Q 200.00,124.19 200.00,124.31 Q 178.38,124.64 155.52,124.49 Q 153.89,124.48 152.70,123.33 L 120.03,91.68 A 2.45,2.40 -22.5 0 0 118.34,91.00 L 81.54,91.00 A 2.15,2.13 22.7 0 0 80.05,91.60 L 46.48,124.14 A 1.27,1.25 -66.7 0 1 45.60,124.50 L 0.79,124.50 A 0.61,0.61 3.3 0 1 0.18,123.82 L 14.60,7.67 A 0.77,0.77 -86.1 0 1 15.36,7.00 L 78.03,7.00 A 2.07,2.05 68.1 0 1 79.52,7.64 L 99.64,28.52 A 0.50,0.50 0.0 0 0 100.36,28.52 L 120.48,7.63 A 2.03,2.00 -67.9 0 1 121.94,7.00 L 184.89,7.00 A 0.56,0.55 -3.5 0 1 185.44,7.48 Q 192.58,66.05 200.00,124.06 ZM 99.65,49.14 L 73.03,21.67 A 1.19,1.15 67.2 0 0 72.19,21.31 L 28.20,21.25 A 0.83,0.83 -86.5 0 0 27.38,21.98 L 16.62,109.70 A 0.44,0.44 3.4 0 0 17.06,110.19 L 39.08,110.24 A 1.90,1.84 -65.9 0 0 40.40,109.71 L 74.47,76.94 A 1.59,1.57 -66.6 0 1 75.56,76.50 L 124.68,76.56 A 1.26,1.24 -23.0 0 1 125.54,76.90 L 159.71,109.84 A 1.25,1.17 65.8 0 0 160.55,110.19 L 182.94,110.19 A 0.44,0.44 -3.4 0 0 183.38,109.70 L 172.64,22.14 A 0.73,0.72 86.4 0 0 171.92,21.50 L 127.52,21.50 A 1.02,0.99 -67.2 0 0 126.80,21.81 L 100.35,49.14 A 0.48,0.48 -90.0 0 1 99.65,49.14 Z"/>
<path fill="#ffffff" d="M 100.35,49.14 L 126.80,21.81 A 1.02,0.99 -67.2 0 1 127.52,21.50 L 171.92,21.50 A 0.73,0.72 86.4 0 1 172.64,22.14 L 183.38,109.70 A 0.44,0.44 -3.4 0 1 182.94,110.19 L 160.55,110.19 A 1.25,1.17 65.8 0 1 159.71,109.84 L 125.54,76.90 A 1.26,1.24 -23.0 0 0 124.68,76.56 L 75.56,76.50 A 1.59,1.57 -66.6 0 0 74.47,76.94 L 40.40,109.71 A 1.90,1.84 -65.9 0 1 39.08,110.24 L 17.06,110.19 A 0.44,0.44 3.4 0 1 16.62,109.70 L 27.38,21.98 A 0.83,0.83 -86.5 0 1 28.20,21.25 L 72.19,21.31 A 1.19,1.15 67.2 0 1 73.03,21.67 L 99.65,49.14 A 0.48,0.48 0.0 0 0 100.35,49.14 ZM 144.7271,32.6042 A 0.50 0.50 0.0 0 0 144.0200,32.6042 L 125.7342,50.8900 A 0.50 0.50 0.0 0 0 125.7342,51.5971 L 135.1529,61.0158 A 0.50 0.50 0.0 0 0 135.8600,61.0158 L 154.1458,42.7300 A 0.50 0.50 0.0 0 0 154.1458,42.0229 L 144.7271,32.6042 ZM 56.57,46.69 L 56.34,37.70 A 0.55,0.54 90.0 0 0 55.81,37.16 L 42.98,37.02 A 1.01,0.97 -89.7 0 0 42.00,38.03 L 42.00,46.59 A 0.66,0.66 -45.0 0 1 41.34,47.25 L 32.64,47.25 A 0.87,0.84 -0.3 0 0 31.77,48.10 L 31.91,61.07 A 0.54,0.53 0.0 0 0 32.44,61.59 L 41.43,61.81 A 0.52,0.51 0.6 0 1 41.93,62.31 L 42.16,71.30 A 0.55,0.54 90.0 0 0 42.69,71.84 L 55.52,71.98 A 1.01,0.97 -89.7 0 0 56.50,70.97 L 56.50,62.41 A 0.66,0.66 -45.0 0 1 57.16,61.75 L 65.86,61.75 A 0.87,0.84 -0.3 0 0 66.73,60.90 L 66.59,47.93 A 0.54,0.53 0.0 0 0 66.06,47.41 L 57.07,47.19 A 0.52,0.51 0.6 0 1 56.57,46.69 ZM 167.8994,56.2336 A 0.50 0.50 0.0 0 0 167.8994,55.5265 L 158.3535,45.9806 A 0.50 0.50 0.0 0 0 157.6464,45.9806 L 139.3606,64.2664 A 0.50 0.50 0.0 0 0 139.3606,64.9735 L 148.9065,74.5194 A 0.50 0.50 0.0 0 0 149.6136,74.5194 L 167.8994,56.2336 Z"/>
<rect fill="#46d45c" x="-13.43" y="-7.16" transform="translate(139.94,46.81) rotate(-45.0)" width="26.86" height="14.32" rx="0.50"/>
<path fill="#6c979c" d="M 57.07,47.19 L 66.06,47.41 A 0.54,0.53 0.0 0 1 66.59,47.93 L 66.73,60.90 A 0.87,0.84 -0.3 0 1 65.86,61.75 L 57.16,61.75 A 0.66,0.66 -45.0 0 0 56.50,62.41 L 56.50,70.97 A 1.01,0.97 -89.7 0 1 55.52,71.98 L 42.69,71.84 A 0.55,0.54 90.0 0 1 42.16,71.30 L 41.93,62.31 A 0.52,0.51 0.6 0 0 41.43,61.81 L 32.44,61.59 A 0.54,0.53 0.0 0 1 31.91,61.07 L 31.77,48.10 A 0.87,0.84 -0.3 0 1 32.64,47.25 L 41.34,47.25 A 0.66,0.66 -45.0 0 0 42.00,46.59 L 42.00,38.03 A 1.01,0.97 -89.7 0 1 42.98,37.02 L 55.81,37.16 A 0.55,0.54 90.0 0 1 56.34,37.70 L 56.57,46.69 A 0.52,0.51 0.6 0 0 57.07,47.19 Z"/>
<rect fill="#da3232" x="-7.25" y="-13.43" transform="translate(153.63,60.25) rotate(45.0)" width="14.50" height="26.86" rx="0.50"/>
<path fill="#222a2c" d="M 85.95,168.81 L 58.77,168.75 A 0.77,0.76 0.0 0 1 58.00,167.99 L 58.00,158.67 A 0.67,0.67 -0.0 0 1 58.67,158.00 Q 75.25,158.00 91.25,158.08 Q 97.30,158.11 97.28,164.25 Q 97.25,174.91 97.25,185.57 Q 97.25,189.16 96.12,190.67 Q 94.40,192.99 90.75,193.00 Q 69.14,193.06 55.33,192.84 Q 49.54,192.74 46.43,191.31 Q 39.93,188.32 38.42,181.44 Q 38.00,179.54 38.00,169.52 Q 38.00,162.37 38.00,155.22 Q 38.00,145.46 39.56,142.00 Q 41.79,137.07 47.01,134.98 Q 50.08,133.75 56.66,133.72 Q 76.36,133.65 96.06,133.93 A 0.55,0.52 0.0 0 1 96.60,134.44 L 96.72,143.66 A 0.87,0.83 -0.3 0 1 95.85,144.50 Q 74.63,144.50 53.75,144.50 Q 51.29,144.50 50.00,145.73 Q 49.02,146.66 48.93,149.08 Q 48.44,163.27 48.93,177.45 Q 49.01,179.76 49.92,180.78 Q 51.20,182.21 53.50,182.22 Q 69.75,182.25 86.00,182.25 A 0.50,0.50 45.0 0 0 86.50,181.75 L 86.44,169.32 A 0.51,0.49 90.0 0 0 85.95,168.81 Z"/>
<path fill="#222a2c" d="M 138.31,145.06 L 138.25,192.50 A 0.50,0.50 -45.0 0 1 137.75,193.00 L 128.20,192.95 A 0.72,0.71 -89.6 0 1 127.50,192.23 L 127.50,145.00 A 0.52,0.51 0.6 0 0 126.99,144.49 L 104.69,144.33 A 0.55,0.53 0.0 0 1 104.15,143.81 L 104.05,134.34 A 0.62,0.58 -0.5 0 1 104.67,133.75 L 161.43,133.75 A 0.55,0.52 0.5 0 1 161.98,134.28 L 161.84,143.82 A 0.54,0.51 -0.6 0 1 161.31,144.33 L 138.81,144.56 A 0.51,0.50 -0.6 0 0 138.31,145.06 Z"/>
</svg>
