<?xml version="1.0" encoding="UTF-8" standalone="no"?>
<!DOCTYPE svg PUBLIC "-//W3C//DTD SVG 1.1//EN" "http://www.w3.org/Graphics/SVG/1.1/DTD/svg11.dtd">
<svg xmlns="http://www.w3.org/2000/svg" version="1.1" viewBox="0 0 200 200">
<path fill="#0f0f0f" d="M 200.00,157.06 Q 200.00,157.19 200.00,157.31 Q 177.16,157.68 154.31,157.44 A 1.28,1.19 65.6 0 1 153.45,157.08 L 119.92,124.55 A 1.99,1.96 -22.7 0 0 118.55,124.00 L 81.32,124.00 A 1.70,1.64 22.0 0 0 80.15,124.47 L 46.60,157.02 A 1.69,1.63 -66.5 0 1 45.44,157.50 Q 23.25,157.50 1.25,157.50 Q 0.35,157.50 0.00,157.19 Q 0.00,156.94 0.00,156.69 Q 7.45,98.87 14.53,40.75 A 0.86,0.85 3.4 0 1 15.38,40.00 L 78.05,40.00 A 2.01,1.99 -21.7 0 1 79.50,40.62 L 99.63,61.52 A 0.51,0.50 44.6 0 0 100.36,61.52 L 120.49,40.62 A 2.00,1.98 -68.0 0 1 121.93,40.00 L 184.89,40.00 A 0.56,0.55 -3.5 0 1 185.44,40.48 Q 192.59,99.05 200.00,157.06 ZM 99.65,82.15 L 73.28,54.68 A 1.19,1.13 67.2 0 0 72.44,54.31 L 28.20,54.25 A 0.83,0.83 -86.5 0 0 27.38,54.98 L 16.62,142.45 A 0.45,0.44 3.4 0 0 17.07,142.94 L 39.15,143.00 A 2.27,2.27 22.9 0 0 40.73,142.36 L 74.53,109.86 A 1.27,1.25 -66.7 0 1 75.41,109.50 L 124.19,109.50 A 2.23,2.21 -23.0 0 1 125.72,110.11 L 159.41,142.52 A 2.64,2.61 -22.9 0 0 161.23,143.25 L 182.96,143.25 A 0.46,0.45 86.6 0 0 183.41,142.74 L 172.62,55.18 A 0.57,0.56 86.6 0 0 172.06,54.68 L 127.56,54.56 A 1.23,1.15 -66.4 0 0 126.71,54.93 L 100.35,82.15 A 0.49,0.49 -0.0 0 1 99.65,82.15 Z"/>
<path fill="#ffffff" d="M 100.35,82.15 L 126.71,54.93 A 1.23,1.15 -66.4 0 1 127.56,54.56 L 172.06,54.68 A 0.57,0.56 86.6 0 1 172.62,55.18 L 183.41,142.74 A 0.46,0.45 86.6 0 1 182.96,143.25 L 161.23,143.25 A 2.64,2.61 -22.9 0 1 159.41,142.52 L 125.72,110.11 A 2.23,2.21 -23.0 0 0 124.19,109.50 L 75.41,109.50 A 1.27,1.25 -66.7 0 0 74.53,109.86 L 40.73,142.36 A 2.27,2.27 22.9 0 1 39.15,143.00 L 17.07,142.94 A 0.45,0.44 3.4 0 1 16.62,142.45 L 27.38,54.98 A 0.83,0.83 -86.5 0 1 28.20,54.25 L 72.44,54.31 A 1.19,1.13 67.2 0 1 73.28,54.68 L 99.65,82.15 A 0.49,0.49 0.0 0 0 100.35,82.15 ZM 144.6352,66.7554 A 0.54 0.54 0.0 0 0 143.8715,66.7554 L 125.7554,84.8715 A 0.54 0.54 0.0 0 0 125.7554,85.6352 L 135.2448,95.1246 A 0.54 0.54 0.0 0 0 136.0085,95.1246 L 154.1246,77.0085 A 0.54 0.54 0.0 0 0 154.1246,76.2448 L 144.6352,66.7554 ZM 41.93,96.56 L 42.16,105.55 A 0.55,0.54 90.0 0 0 42.69,106.09 L 55.52,106.23 A 1.01,0.97 -89.7 0 0 56.50,105.22 L 56.50,96.66 A 0.66,0.66 -45.0 0 1 57.16,96.00 L 65.86,96.00 A 0.87,0.84 -0.3 0 0 66.73,95.15 L 66.59,82.18 A 0.54,0.53 0.0 0 0 66.06,81.66 L 57.07,81.44 A 0.52,0.51 0.6 0 1 56.57,80.94 L 56.34,71.95 A 0.55,0.54 90.0 0 0 55.81,71.41 L 42.98,71.27 A 1.01,0.97 -89.7 0 0 42.00,72.28 L 42.00,80.84 A 0.66,0.66 -45.0 0 1 41.34,81.50 L 32.42,81.50 A 0.65,0.63 -0.4 0 0 31.77,82.14 L 31.91,95.31 A 0.54,0.54 -8.9 0 0 32.44,95.84 L 41.43,96.06 A 0.52,0.51 0.6 0 1 41.93,96.56 ZM 167.8111,90.3146 A 0.45 0.45 0.0 0 0 167.8111,89.6782 L 158.3218,80.1889 A 0.45 0.45 0.0 0 0 157.6854,80.1889 L 139.3289,98.5454 A 0.45 0.45 0.0 0 0 139.3289,99.1818 L 148.8182,108.6711 A 0.45 0.45 0.0 0 0 149.4546,108.6711 L 167.8111,90.3146 Z"/>
<rect fill="#46d45c" x="-13.35" y="-7.25" transform="translate(139.94,80.94) rotate(-45.0)" width="26.70" height="14.50" rx="0.54"/>
<path fill="#6c979c" d="M 41.43,96.06 L 32.44,95.84 A 0.54,0.54 -43.9 0 1 31.91,95.31 L 31.77,82.14 A 0.65,0.63 -0.4 0 1 32.42,81.50 L 41.34,81.50 A 0.66,0.66 -45.0 0 0 42.00,80.84 L 42.00,72.28 A 1.01,0.97 -89.7 0 1 42.98,71.27 L 55.81,71.41 A 0.55,0.54 90.0 0 1 56.34,71.95 L 56.57,80.94 A 0.52,0.51 0.6 0 0 57.07,81.44 L 66.06,81.66 A 0.54,0.53 0.0 0 1 66.59,82.18 L 66.73,95.15 A 0.87,0.84 -0.3 0 1 65.86,96.00 L 57.16,96.00 A 0.66,0.66 -45.0 0 0 56.50,96.66 L 56.50,105.22 A 1.01,0.97 -89.7 0 1 55.52,106.23 L 42.69,106.09 A 0.55,0.54 90.0 0 1 42.16,105.55 L 41.93,96.56 A 0.52,0.51 0.6 0 0 41.43,96.06 Z"/>
<rect fill="#da3232" x="-7.16" y="-13.43" transform="translate(153.57,94.43) rotate(45.0)" width="14.32" height="26.86" rx="0.45"/>
</svg>
